<?xml version="1.0" encoding="utf-8"?>
<!-- Generator: Adobe Illustrator 28.0.0, SVG Export Plug-In . SVG Version: 6.00 Build 0)  -->
<svg version="1.1" id="Capa_1" xmlns="http://www.w3.org/2000/svg" xmlns:xlink="http://www.w3.org/1999/xlink" x="0px" y="0px"
	 viewBox="0 0 525.4 377.7" style="enable-background:new 0 0 525.4 377.7;" xml:space="preserve">
<style type="text/css">
	.st0{fill-rule:evenodd;clip-rule:evenodd;fill:#EA5E96;}
</style>
<path class="st0" d="M231.4,78.5c-0.3-11.3-10.2-22.4,1.5-31.2c13-9.8,21.9,0,29.6,5c7.3-4.7,10.6-11.8,24.4-7.7
	c18.1,5.3,18.2,33.7-28,54l-0.4,21.5c-37.1,2.6-40,21.6-56.9,41.9c-24.3,29.2-122.2,69.8-164.1,87.8c-8,3.5-28.9,16.8-17.8,27.6
	c3.7,3.4,48.2,1.3,56.2,1.3h402.5c8.6,0,21.7,3,26.7-1.3c19.1-17.3-41.5-37.7-51.4-42c-33.3-14.6-109.7-49-129.6-72.5
	c-17.5-20.7-20.5-40.1-57.8-42.9v-16.5c15.5-10.1,27.3-15.3,35.3-29.3c9.8-17.2,1.4-35.7-17.9-37.5c-15.7-1.5-14.9,6.8-25.1,3.4
	c-9.6-3.1-14.7-6.3-26.2-1c-12.8,5.8-16.2,19.1-10.9,31.5c2.7,6.4,3,6.8,9.9,7.7l0,0V78.5z M50.8,270.4l423.6,0.3
	c-10.9-7.8-38.8-19.7-52-26.1c-25.1-12.3-152.6-77.4-160-77.4c-8.1,0-91.2,43.7-106.3,50.9L50.8,270.4
	C50.8,270.4,50.8,270.4,50.8,270.4z"/>
</svg>
